<svg width="359" height="131" viewBox="0 0 359 131" fill="none" xmlns="http://www.w3.org/2000/svg">
<mask id="path-1-outside-1_3_56" maskUnits="userSpaceOnUse" x="0.5" y="0" width="358" height="131" fill="black">
<rect fill="white" x="0.5" width="358" height="131"/>
<path d="M1.73242 33.7V1.29999H131.152V33.7H82.9124V129.82H48.8924V33.7H1.73242ZM145.697 129.82V1.29999H179.717V129.82H145.697ZM252.713 33.7C234.533 33.7 230.213 49.36 230.213 65.56C230.213 81.94 234.533 97.6 252.713 97.6H299.513C313.013 97.6 318.593 90.76 321.113 77.26H357.293C351.713 125.32 311.573 129.82 290.153 129.82H262.073C239.033 129.82 194.213 124.78 194.213 65.56C194.213 6.51999 239.033 1.29999 262.073 1.29999H290.153C311.573 1.29999 351.713 5.79999 357.293 53.86H321.113C319.493 41.44 313.013 33.7 299.513 33.7H252.713Z"/>
</mask>
<path d="M1.73242 33.7V1.29999H131.152V33.7H82.9124V129.82H48.8924V33.7H1.73242ZM145.697 129.82V1.29999H179.717V129.82H145.697ZM252.713 33.7C234.533 33.7 230.213 49.36 230.213 65.56C230.213 81.94 234.533 97.6 252.713 97.6H299.513C313.013 97.6 318.593 90.76 321.113 77.26H357.293C351.713 125.32 311.573 129.82 290.153 129.82H262.073C239.033 129.82 194.213 124.78 194.213 65.56C194.213 6.51999 239.033 1.29999 262.073 1.29999H290.153C311.573 1.29999 351.713 5.79999 357.293 53.86H321.113C319.493 41.44 313.013 33.7 299.513 33.7H252.713Z" fill="white"/>
<path d="M1.73242 33.7H0.732422V34.7H1.73242V33.7ZM1.73242 1.3V0.299995H0.732422V1.3H1.73242ZM131.152 1.3H132.152V0.299995H131.152V1.3ZM131.152 33.7V34.7H132.152V33.7H131.152ZM82.9124 33.7V32.7H81.9124V33.7H82.9124ZM82.9124 129.82V130.82H83.9124V129.82H82.9124ZM48.8924 129.82H47.8924V130.82H48.8924V129.82ZM48.8924 33.7H49.8924V32.7H48.8924V33.7ZM2.73242 33.7V1.3H0.732422V33.7H2.73242ZM1.73242 2.3H131.152V0.299995H1.73242V2.3ZM130.152 1.3V33.7H132.152V1.3H130.152ZM131.152 32.7H82.9124V34.7H131.152V32.7ZM81.9124 33.7V129.82H83.9124V33.7H81.9124ZM82.9124 128.82H48.8924V130.82H82.9124V128.82ZM49.8924 129.82V33.7H47.8924V129.82H49.8924ZM48.8924 32.7H1.73242V34.7H48.8924V32.7ZM145.697 129.82H144.697V130.82H145.697V129.82ZM145.697 1.3V0.299995H144.697V1.3H145.697ZM179.717 1.3H180.717V0.299995H179.717V1.3ZM179.717 129.82V130.82H180.717V129.82H179.717ZM146.697 129.82V1.3H144.697V129.82H146.697ZM145.697 2.3H179.717V0.299995H145.697V2.3ZM178.717 1.3V129.82H180.717V1.3H178.717ZM179.717 128.82H145.697V130.82H179.717V128.82ZM321.113 77.26V76.26H320.282L320.13 77.0765L321.113 77.26ZM357.293 77.26L358.286 77.3753L358.416 76.26H357.293V77.26ZM357.293 53.86V54.86H358.416L358.286 53.7447L357.293 53.86ZM321.113 53.86L320.121 53.9893L320.235 54.86H321.113V53.86ZM252.713 32.7C248.021 32.7 244.163 33.7117 241.025 35.5354C237.887 37.3594 235.524 39.9634 233.775 43.0635C230.294 49.2306 229.213 57.4058 229.213 65.56H231.213C231.213 57.5142 232.292 49.7594 235.516 44.0465C237.119 41.2066 239.245 38.8831 242.03 37.2646C244.815 35.6458 248.315 34.7 252.713 34.7V32.7ZM229.213 65.56C229.213 73.8029 230.294 82.023 233.774 88.2126C235.523 91.3241 237.886 93.9343 241.024 95.7614C244.163 97.5883 248.021 98.6 252.713 98.6V96.6C248.315 96.6 244.816 95.6542 242.031 94.033C239.246 92.412 237.12 90.0834 235.517 87.2324C232.292 81.497 231.213 73.6971 231.213 65.56H229.213ZM252.713 98.6H299.513V96.6H252.713V98.6ZM299.513 98.6C306.436 98.6 311.496 96.8408 315.138 93.1996C318.746 89.5907 320.822 84.2679 322.096 77.4435L320.13 77.0765C318.884 83.7521 316.909 88.5993 313.723 91.7854C310.57 94.9392 306.089 96.6 299.513 96.6V98.6ZM321.113 78.26H357.293V76.26H321.113V78.26ZM356.3 77.1447C353.547 100.851 342.311 113.703 329.193 120.68C316.005 127.694 300.818 128.82 290.153 128.82V130.82C300.908 130.82 316.501 129.696 330.132 122.445C343.835 115.157 355.459 101.729 358.286 77.3753L356.3 77.1447ZM290.153 128.82H262.073V130.82H290.153V128.82ZM262.073 128.82C250.593 128.82 233.865 127.556 220.027 119.046C206.277 110.59 195.213 94.872 195.213 65.56H193.213C193.213 95.4679 204.558 111.88 218.979 120.749C233.311 129.564 250.512 130.82 262.073 130.82V128.82ZM195.213 65.56C195.213 36.3391 206.277 20.6203 220.028 12.1412C233.867 3.60786 250.596 2.3 262.073 2.3V0.299995C250.51 0.299995 233.309 1.60212 218.978 10.4388C204.559 19.3297 193.213 35.7409 193.213 65.56H195.213ZM262.073 2.3H290.153V0.299995H262.073V2.3ZM290.153 2.3C300.818 2.3 316.005 3.42592 329.193 10.4404C342.311 17.4175 353.547 30.2693 356.3 53.9753L358.286 53.7447C355.459 29.3907 343.835 15.9625 330.132 8.67461C316.501 1.42406 300.908 0.299995 290.153 0.299995V2.3ZM357.293 52.86H321.113V54.86H357.293V52.86ZM322.104 53.7307C321.277 47.3901 319.194 42.1102 315.473 38.4131C311.734 34.6984 306.462 32.7 299.513 32.7V34.7C306.063 34.7 310.782 36.5716 314.063 39.8319C317.362 43.1098 319.328 47.9099 320.121 53.9893L322.104 53.7307ZM299.513 32.7H252.713V34.7H299.513V32.7Z" fill="white" mask="url(#path-1-outside-1_3_56)"/>
</svg>
