<svg width="540" height="202" viewBox="0 0 540 202" fill="none" xmlns="http://www.w3.org/2000/svg">
<g clip-path="url(#clip0_5_19)">
<path d="M134.89 120.762C120.843 136.295 99.9605 146.129 76.7576 146.129C34.3653 146.129 0 113.433 0 73.0958C0 32.7584 34.3653 0 76.7576 0C100.023 0 120.843 9.8338 134.89 25.3674L117.833 38.7088C107.799 27.8729 93.1251 20.9829 76.7576 20.9829C46.5312 20.9829 22.0741 44.2834 22.0741 73.0958C22.0741 101.908 46.5939 125.146 76.7576 125.146C93.1251 125.146 107.862 118.319 117.833 107.42L134.89 120.762Z" fill="white"/>
<path d="M164.176 123.768V4.25923H143.795V123.768V144.125H164.176H243.066V123.768H164.176Z" fill="white"/>
<path d="M270.408 123.768V84.3702H335.313V64.0137H270.408V24.6158H358.014L349.297 4.25923H270.408H250.027V24.6158V64.0137V84.3702V123.768V144.125H270.408H359.331V123.768H270.408Z" fill="white"/>
<path d="M540 4.25923L480.864 148.822L435.211 45.4109L416.272 89.0053L408.559 68.2729L435.399 1.19008L479.171 101.908L515.668 4.25923H540Z" fill="white"/>
<path d="M446.248 82.3659L443.551 88.191L414.893 150.451L355.067 4.25923H379.461L405.862 74.9123V74.9749L414.516 97.9622L415.959 101.908L435.274 57.4369L446.248 82.3659Z" fill="white"/>
<path d="M67.9155 175.067V178.136H67.9782C69.2951 175.756 71.4273 174.566 74.3119 174.566C75.6289 174.566 76.6949 174.753 77.5102 175.067C78.3881 175.442 79.0779 175.881 79.5796 176.57C80.0813 177.259 80.4576 177.948 80.7084 178.825C80.8965 179.702 81.022 180.641 81.022 181.706V194.546H77.8237V181.33C77.8237 180.14 77.4475 179.138 76.7576 178.449C76.0678 177.76 75.0645 177.384 73.873 177.384C72.8696 177.384 72.0544 177.509 71.3018 177.823C70.5493 178.136 69.9849 178.574 69.4832 179.138C68.9815 179.702 68.668 180.328 68.4171 181.08C68.1663 181.831 68.0409 182.646 68.0409 183.522V194.546H64.8427V175.004H67.8528L67.9155 175.067Z" fill="white"/>
<path d="M94.1912 171.496V167.55H97.3894V171.496H94.1912ZM97.4521 175.067V194.609H94.2539V175.067H97.4521Z" fill="white"/>
<path d="M122.411 178.449C121.596 177.76 120.53 177.447 119.15 177.447C117.958 177.447 117.018 177.635 116.265 178.073C115.513 178.512 114.886 179.075 114.384 179.764C113.945 180.453 113.569 181.268 113.381 182.207C113.192 183.147 113.067 184.086 113.067 185.088C113.067 185.965 113.192 186.905 113.381 187.719C113.569 188.596 113.945 189.348 114.384 189.974C114.823 190.663 115.45 191.164 116.14 191.602C116.892 191.978 117.77 192.229 118.774 192.229C120.341 192.229 121.596 191.79 122.474 190.976C123.352 190.162 123.916 188.972 124.104 187.469H127.365C126.989 189.911 126.111 191.728 124.668 193.043C123.226 194.358 121.219 194.985 118.774 194.985C117.269 194.985 115.952 194.734 114.823 194.296C113.694 193.857 112.691 193.168 111.938 192.229C111.186 191.352 110.559 190.287 110.182 189.097C109.806 187.844 109.618 186.529 109.618 185.088C109.618 183.648 109.806 182.27 110.182 181.017C110.559 179.764 111.123 178.637 111.876 177.697C112.628 176.758 113.631 176.006 114.76 175.442C115.889 174.879 117.269 174.628 118.836 174.628C119.965 174.628 120.969 174.753 121.972 175.004C122.975 175.255 123.79 175.693 124.543 176.257C125.296 176.82 125.923 177.509 126.362 178.324C126.863 179.138 127.114 180.14 127.24 181.33H123.916C123.665 180.078 123.163 179.138 122.348 178.449H122.411Z" fill="white"/>
<path d="M138.904 180.829C139.28 179.576 139.907 178.512 140.722 177.572C141.538 176.633 142.541 175.944 143.732 175.38C144.924 174.879 146.304 174.566 147.809 174.566C149.314 174.566 150.756 174.816 151.885 175.38C153.014 175.944 154.017 176.633 154.832 177.572C155.647 178.512 156.275 179.576 156.651 180.829C157.027 182.082 157.278 183.397 157.278 184.838C157.278 186.278 157.09 187.594 156.651 188.847C156.275 190.099 155.647 191.164 154.832 192.104C154.017 193.043 153.014 193.732 151.885 194.233C150.756 194.734 149.314 194.985 147.809 194.985C146.304 194.985 144.924 194.734 143.732 194.233C142.541 193.732 141.538 192.98 140.722 192.104C139.907 191.164 139.28 190.099 138.904 188.847C138.527 187.594 138.277 186.278 138.277 184.838C138.277 183.397 138.465 182.082 138.904 180.829ZM142.165 187.97C142.478 188.909 142.917 189.661 143.482 190.287C144.046 190.913 144.673 191.352 145.426 191.728C146.178 192.041 146.931 192.229 147.809 192.229C148.687 192.229 149.439 192.041 150.192 191.728C150.944 191.415 151.571 190.913 152.136 190.287C152.7 189.661 153.139 188.909 153.453 187.97C153.766 187.03 153.954 186.028 153.954 184.838C153.954 183.648 153.766 182.583 153.453 181.706C153.139 180.767 152.7 180.015 152.136 179.389C151.571 178.762 150.944 178.261 150.192 177.948C149.439 177.635 148.687 177.447 147.809 177.447C146.931 177.447 146.178 177.635 145.426 177.948C144.673 178.261 144.046 178.762 143.482 179.389C142.917 180.015 142.478 180.767 142.165 181.706C141.851 182.646 141.663 183.648 141.663 184.838C141.663 186.028 141.851 187.093 142.165 187.97Z" fill="white"/>
<path d="M177.345 175.067V177.885H173.457V190.037C173.457 190.412 173.457 190.726 173.583 190.913C173.583 191.164 173.771 191.289 173.959 191.415C174.147 191.54 174.398 191.602 174.711 191.665C175.025 191.728 175.464 191.665 175.966 191.665H177.471V194.484H175.025C174.21 194.484 173.457 194.484 172.893 194.296C172.328 194.171 171.827 193.983 171.45 193.669C171.074 193.356 170.823 192.918 170.635 192.354C170.447 191.79 170.384 191.039 170.384 190.162V177.76H167.061V174.941H170.384V169.054H173.583V174.941H177.471L177.345 175.067Z" fill="white"/>
<path d="M189.072 171.496V167.55H192.27V171.496H189.072ZM192.333 175.067V194.609H189.135V175.067H192.333Z" fill="white"/>
<path d="M208.45 175.067V178.136H208.512C209.829 175.756 211.961 174.566 214.846 174.566C216.163 174.566 217.229 174.753 218.044 175.067C218.922 175.442 219.612 175.881 220.114 176.57C220.615 177.259 220.992 177.948 221.243 178.825C221.431 179.702 221.556 180.641 221.556 181.706V194.546H218.358V181.33C218.358 180.14 217.982 179.138 217.292 178.449C216.602 177.76 215.599 177.384 214.407 177.384C213.404 177.384 212.589 177.509 211.836 177.823C211.083 178.136 210.519 178.574 210.017 179.138C209.516 179.702 209.202 180.328 208.951 181.08C208.7 181.831 208.575 182.646 208.575 183.522V194.546H205.377V175.004H208.387L208.45 175.067Z" fill="white"/>
<path d="M248.522 193.356C247.079 194.484 245.198 195.047 243.003 195.047C241.435 195.047 240.056 194.797 238.927 194.296C237.798 193.795 236.795 193.106 236.042 192.166C235.29 191.289 234.663 190.162 234.286 188.909C233.91 187.656 233.659 186.278 233.597 184.775C233.597 183.272 233.847 181.957 234.286 180.704C234.725 179.451 235.352 178.386 236.168 177.509C236.983 176.633 237.986 175.881 239.052 175.38C240.118 174.879 241.435 174.628 242.752 174.628C244.508 174.628 245.951 175.004 247.079 175.693C248.208 176.382 249.149 177.322 249.839 178.449C250.528 179.576 251.03 180.767 251.281 182.082C251.532 183.397 251.657 184.65 251.594 185.84H236.983C236.983 186.717 237.046 187.531 237.296 188.283C237.547 189.034 237.861 189.723 238.363 190.35C238.864 190.913 239.491 191.415 240.307 191.79C241.059 192.166 242 192.291 243.066 192.291C244.445 192.291 245.574 191.978 246.39 191.352C247.205 190.726 247.832 189.786 248.083 188.471H251.281C250.842 190.663 249.901 192.291 248.459 193.419L248.522 193.356ZM247.769 180.767C247.456 180.078 247.079 179.514 246.578 179.013C246.076 178.512 245.512 178.136 244.822 177.823C244.132 177.509 243.442 177.384 242.627 177.384C241.812 177.384 241.059 177.509 240.369 177.823C239.679 178.136 239.115 178.512 238.676 179.013C238.174 179.514 237.798 180.078 237.547 180.767C237.296 181.455 237.108 182.144 237.046 182.896H248.271C248.271 182.144 248.02 181.393 247.769 180.767Z" fill="white"/>
<path d="M286.273 175.067V177.697H286.336C286.838 176.633 287.716 175.818 288.845 175.317C289.973 174.816 291.227 174.566 292.607 174.566C294.112 174.566 295.429 174.816 296.558 175.38C297.687 175.944 298.627 176.695 299.38 177.635C300.132 178.574 300.697 179.639 301.073 180.892C301.449 182.144 301.637 183.46 301.637 184.838C301.637 186.216 301.449 187.531 301.073 188.784C300.697 190.037 300.132 191.101 299.38 192.041C298.627 192.98 297.687 193.669 296.558 194.233C295.429 194.797 294.112 195.047 292.67 195.047C292.168 195.047 291.666 195.047 291.039 194.922C290.475 194.797 289.848 194.672 289.283 194.421C288.719 194.171 288.155 193.857 287.653 193.482C287.151 193.106 286.712 192.605 286.336 192.041H286.273V202.063H283.075V175.067H286.273ZM297.812 181.957C297.561 181.08 297.185 180.328 296.746 179.639C296.244 178.95 295.617 178.449 294.865 178.011C294.112 177.635 293.172 177.384 292.168 177.384C291.165 177.384 290.161 177.572 289.409 178.011C288.656 178.449 288.029 179.013 287.528 179.702C287.026 180.391 286.712 181.205 286.462 182.082C286.273 182.959 286.148 183.836 286.148 184.775C286.148 185.715 286.273 186.654 286.462 187.531C286.712 188.408 287.026 189.222 287.528 189.911C288.029 190.6 288.656 191.164 289.409 191.54C290.161 191.978 291.165 192.166 292.231 192.166C293.297 192.166 294.238 191.978 294.99 191.54C295.743 191.101 296.307 190.538 296.809 189.849C297.248 189.16 297.561 188.345 297.812 187.406C298 186.529 298.126 185.589 298.126 184.587C298.126 183.71 298 182.771 297.749 181.894L297.812 181.957Z" fill="white"/>
<path d="M313.302 180.829C313.678 179.576 314.305 178.512 315.12 177.572C315.935 176.633 316.939 175.944 318.13 175.38C319.322 174.879 320.701 174.566 322.206 174.566C323.712 174.566 325.154 174.816 326.283 175.38C327.411 175.944 328.415 176.633 329.23 177.572C330.045 178.512 330.672 179.576 331.049 180.829C331.425 182.082 331.676 183.397 331.676 184.838C331.676 186.278 331.488 187.594 331.049 188.847C330.672 190.099 330.045 191.164 329.23 192.104C328.415 193.043 327.411 193.732 326.283 194.233C325.154 194.734 323.712 194.985 322.206 194.985C320.701 194.985 319.322 194.734 318.13 194.233C316.939 193.732 315.935 192.98 315.12 192.104C314.305 191.164 313.678 190.099 313.302 188.847C312.925 187.594 312.674 186.278 312.674 184.838C312.674 183.397 312.863 182.082 313.302 180.829ZM316.563 187.97C316.876 188.909 317.315 189.661 317.879 190.287C318.444 190.913 319.071 191.352 319.823 191.728C320.576 192.041 321.329 192.229 322.206 192.229C323.084 192.229 323.837 192.041 324.589 191.728C325.342 191.415 325.969 190.913 326.534 190.287C327.098 189.661 327.537 188.909 327.85 187.97C328.164 187.03 328.352 186.028 328.352 184.838C328.352 183.648 328.164 182.583 327.85 181.706C327.537 180.767 327.098 180.015 326.534 179.389C325.969 178.762 325.342 178.261 324.589 177.948C323.837 177.635 323.084 177.447 322.206 177.447C321.329 177.447 320.576 177.635 319.823 177.948C319.071 178.261 318.444 178.762 317.879 179.389C317.315 180.015 316.876 180.767 316.563 181.706C316.249 182.646 316.061 183.648 316.061 184.838C316.061 186.028 316.249 187.093 316.563 187.97Z" fill="white"/>
<path d="M356.885 194.546V191.477H356.823C356.133 192.667 355.255 193.544 354.189 194.171C353.123 194.734 351.869 195.047 350.426 195.047C349.109 195.047 348.043 194.86 347.228 194.546C346.35 194.233 345.66 193.732 345.159 193.106C344.657 192.479 344.281 191.728 344.03 190.851C343.779 189.974 343.716 189.034 343.716 187.97V175.129H346.914V188.345C346.914 189.536 347.291 190.538 347.981 191.227C348.67 191.916 349.674 192.291 350.865 192.291C351.869 192.291 352.684 192.166 353.436 191.853C354.126 191.54 354.753 191.101 355.255 190.538C355.757 189.974 356.07 189.348 356.321 188.596C356.572 187.844 356.697 187.03 356.697 186.153V175.129H359.895V194.672H356.885V194.546Z" fill="white"/>
<path d="M384.792 178.449C383.976 177.76 382.91 177.447 381.531 177.447C380.339 177.447 379.398 177.635 378.646 178.073C377.893 178.512 377.266 179.075 376.765 179.764C376.326 180.453 375.949 181.268 375.761 182.207C375.573 183.147 375.448 184.086 375.448 185.088C375.448 185.965 375.573 186.905 375.761 187.719C375.949 188.596 376.326 189.348 376.765 189.974C377.204 190.663 377.831 191.164 378.52 191.602C379.273 191.978 380.151 192.229 381.154 192.229C382.722 192.229 383.976 191.79 384.854 190.976C385.732 190.162 386.297 188.972 386.485 187.469H389.746C389.369 189.911 388.491 191.728 387.049 193.043C385.607 194.358 383.6 194.985 381.154 194.985C379.649 194.985 378.332 194.734 377.204 194.296C376.075 193.857 375.071 193.168 374.319 192.229C373.566 191.352 372.939 190.287 372.563 189.097C372.187 187.844 371.999 186.529 371.999 185.088C371.999 183.648 372.187 182.27 372.563 181.017C372.939 179.764 373.504 178.637 374.256 177.697C375.009 176.758 376.012 176.006 377.141 175.442C378.27 174.879 379.649 174.628 381.217 174.628C382.346 174.628 383.349 174.753 384.353 175.004C385.356 175.255 386.171 175.693 386.924 176.257C387.676 176.82 388.303 177.509 388.742 178.324C389.244 179.138 389.495 180.14 389.62 181.33H386.297C386.046 180.078 385.544 179.138 384.729 178.449H384.792Z" fill="white"/>
<path d="M404.859 167.613V177.948H404.922C405.172 177.322 405.549 176.82 405.988 176.445C406.427 176.006 406.928 175.693 407.493 175.442C408.057 175.192 408.684 175.004 409.249 174.879C409.876 174.754 410.44 174.691 411.067 174.691C412.384 174.691 413.45 174.879 414.265 175.192C415.143 175.568 415.833 176.006 416.335 176.695C416.837 177.384 417.213 178.073 417.464 178.95C417.652 179.827 417.777 180.767 417.777 181.831V194.672H414.579V181.456C414.579 180.265 414.203 179.263 413.513 178.574C412.823 177.885 411.82 177.509 410.628 177.509C409.625 177.509 408.81 177.635 408.057 177.948C407.305 178.261 406.74 178.7 406.239 179.263C405.737 179.827 405.423 180.453 405.172 181.205C404.922 181.957 404.796 182.771 404.796 183.648V194.672H401.598V167.676H404.796L404.859 167.613Z" fill="white"/>
<path d="M444.743 193.356C443.3 194.484 441.419 195.047 439.224 195.047C437.656 195.047 436.277 194.797 435.148 194.296C434.019 193.795 433.016 193.106 432.263 192.166C431.511 191.289 430.884 190.162 430.508 188.909C430.131 187.656 429.88 186.278 429.818 184.775C429.818 183.272 430.069 181.957 430.508 180.704C430.946 179.451 431.574 178.386 432.389 177.509C433.204 176.633 434.207 175.881 435.274 175.38C436.34 174.879 437.656 174.628 438.973 174.628C440.729 174.628 442.172 175.004 443.3 175.693C444.429 176.382 445.37 177.322 446.06 178.449C446.749 179.576 447.251 180.767 447.502 182.082C447.753 183.397 447.878 184.65 447.816 185.84H433.204C433.204 186.717 433.267 187.531 433.518 188.283C433.768 189.034 434.082 189.723 434.584 190.35C435.085 190.913 435.712 191.415 436.528 191.79C437.28 192.166 438.221 192.291 439.287 192.291C440.667 192.291 441.795 191.978 442.611 191.352C443.426 190.726 444.053 189.786 444.304 188.471H447.502C447.063 190.663 446.122 192.291 444.68 193.419L444.743 193.356ZM443.928 180.767C443.614 180.078 443.238 179.514 442.736 179.013C442.234 178.512 441.67 178.136 440.98 177.823C440.29 177.509 439.601 177.384 438.785 177.384C437.97 177.384 437.218 177.509 436.528 177.823C435.838 178.136 435.273 178.512 434.834 179.013C434.333 179.514 433.957 180.078 433.706 180.767C433.455 181.455 433.267 182.144 433.204 182.896H444.429C444.429 182.144 444.178 181.393 443.928 180.767Z" fill="white"/>
<path d="M462.239 190.225C462.553 190.726 462.929 191.101 463.431 191.415C463.932 191.728 464.497 191.916 465.124 192.041C465.751 192.166 466.378 192.229 467.005 192.229C467.507 192.229 468.008 192.229 468.573 192.104C469.137 192.041 469.639 191.916 470.078 191.665C470.517 191.477 470.956 191.164 471.207 190.788C471.52 190.412 471.646 189.911 471.646 189.285C471.646 188.471 471.332 187.844 470.705 187.406C470.078 186.967 469.263 186.654 468.322 186.341C467.381 186.091 466.378 185.84 465.249 185.652C464.12 185.464 463.117 185.151 462.176 184.775C461.236 184.399 460.42 183.836 459.793 183.147C459.166 182.458 458.853 181.456 458.853 180.203C458.853 179.201 459.103 178.386 459.542 177.697C459.981 177.008 460.546 176.445 461.236 176.006C461.925 175.568 462.741 175.255 463.556 175.004C464.434 174.816 465.312 174.691 466.127 174.691C467.256 174.691 468.259 174.816 469.2 175.004C470.141 175.192 470.956 175.505 471.708 176.006C472.398 176.445 473.025 177.071 473.401 177.885C473.84 178.7 474.091 179.639 474.154 180.829H470.956C470.956 180.203 470.768 179.702 470.454 179.263C470.203 178.825 469.827 178.512 469.388 178.261C468.949 178.011 468.51 177.823 467.946 177.697C467.444 177.572 466.88 177.509 466.378 177.509C465.876 177.509 465.437 177.509 464.936 177.635C464.434 177.697 463.995 177.823 463.619 178.011C463.242 178.198 462.866 178.449 462.615 178.762C462.364 179.075 462.239 179.514 462.239 180.015C462.239 180.579 462.427 181.017 462.803 181.393C463.18 181.769 463.681 182.082 464.308 182.27C464.936 182.52 465.625 182.708 466.378 182.896C467.13 183.084 467.883 183.209 468.635 183.397C469.451 183.585 470.203 183.773 471.018 184.024C471.771 184.274 472.461 184.587 473.088 185.026C473.652 185.464 474.154 185.965 474.53 186.592C474.907 187.218 475.095 188.032 475.095 188.909C475.095 190.099 474.844 191.101 474.342 191.853C473.84 192.605 473.213 193.294 472.398 193.732C471.583 194.233 470.705 194.546 469.702 194.734C468.698 194.922 467.695 195.047 466.754 195.047C465.688 195.047 464.622 194.922 463.681 194.734C462.678 194.484 461.8 194.108 461.047 193.607C460.295 193.106 459.668 192.417 459.229 191.54C458.79 190.726 458.539 189.661 458.476 188.471H461.675C461.675 189.16 461.863 189.786 462.176 190.287L462.239 190.225Z" fill="white"/>
</g>
<defs>
<clipPath id="clip0_5_19">
<rect width="540" height="202" fill="white"/>
</clipPath>
</defs>
</svg>
