<svg width="446" height="137" viewBox="0 0 446 137" fill="none" xmlns="http://www.w3.org/2000/svg">
<mask id="path-1-outside-1_3_57" maskUnits="userSpaceOnUse" x="0.5" y="0" width="446" height="137" fill="black">
<rect fill="white" x="0.5" width="446" height="137"/>
<path d="M4.80273 36.7V4.29999H134.223V36.7H85.9827V132.82H51.9627V36.7H4.80273ZM177.532 4.29999H218.932L283.552 132.82H245.392L232.252 104.92H164.032L150.892 132.82H112.732L177.532 4.29999ZM178.432 74.5H217.852L198.232 32.56L178.432 74.5ZM336.643 36.7C318.463 36.7 314.143 52.36 314.143 68.56C314.143 84.94 318.463 100.6 336.643 100.6H383.443C396.943 100.6 402.523 93.76 405.043 80.26H441.223C435.643 128.32 395.503 132.82 374.083 132.82H346.003C322.963 132.82 278.143 127.78 278.143 68.56C278.143 9.51999 322.963 4.29999 346.003 4.29999H374.083C395.503 4.29999 435.643 8.79999 441.223 56.86H405.043C403.423 44.44 396.943 36.7 383.443 36.7H336.643Z"/>
</mask>
<path d="M4.80273 36.7H0.802734V40.7H4.80273V36.7ZM4.80273 4.3V0.299995H0.802734V4.3H4.80273ZM134.223 4.3H138.223V0.299995H134.223V4.3ZM134.223 36.7V40.7H138.223V36.7H134.223ZM85.9827 36.7V32.7H81.9827V36.7H85.9827ZM85.9827 132.82V136.82H89.9827V132.82H85.9827ZM51.9627 132.82H47.9627V136.82H51.9627V132.82ZM51.9627 36.7H55.9627V32.7H51.9627V36.7ZM8.80273 36.7V4.3H0.802734V36.7H8.80273ZM4.80273 8.29999H134.223V0.299995H4.80273V8.29999ZM130.223 4.3V36.7H138.223V4.3H130.223ZM134.223 32.7H85.9827V40.7H134.223V32.7ZM81.9827 36.7V132.82H89.9827V36.7H81.9827ZM85.9827 128.82H51.9627V136.82H85.9827V128.82ZM55.9627 132.82V36.7H47.9627V132.82H55.9627ZM51.9627 32.7H4.80273V40.7H51.9627V32.7ZM177.532 4.3V0.299995H175.07L173.961 2.49915L177.532 4.3ZM218.932 4.3L222.506 2.50314L221.398 0.299995H218.932V4.3ZM283.552 132.82V136.82H290.041L287.126 131.023L283.552 132.82ZM245.392 132.82L241.774 134.524L242.855 136.82H245.392V132.82ZM232.252 104.92L235.871 103.216L234.79 100.92H232.252V104.92ZM164.032 104.92V100.92H161.495L160.414 103.216L164.032 104.92ZM150.892 132.82V136.82H153.43L154.511 134.524L150.892 132.82ZM112.732 132.82L109.161 131.019L106.236 136.82H112.732V132.82ZM178.432 74.5L174.815 72.7923L172.121 78.5H178.432V74.5ZM217.852 74.5V78.5H224.14L221.476 72.805L217.852 74.5ZM198.232 32.56L201.856 30.865L198.249 23.1555L194.615 30.8523L198.232 32.56ZM177.532 8.29999H218.932V0.299995H177.532V8.29999ZM215.359 6.09685L279.979 134.617L287.126 131.023L222.506 2.50314L215.359 6.09685ZM283.552 128.82H245.392V136.82H283.552V128.82ZM249.011 131.116L235.871 103.216L228.634 106.624L241.774 134.524L249.011 131.116ZM232.252 100.92H164.032V108.92H232.252V100.92ZM160.414 103.216L147.274 131.116L154.511 134.524L167.651 106.624L160.414 103.216ZM150.892 128.82H112.732V136.82H150.892V128.82ZM116.304 134.621L181.104 6.10084L173.961 2.49915L109.161 131.019L116.304 134.621ZM178.432 78.5H217.852V70.5H178.432V78.5ZM221.476 72.805L201.856 30.865L194.609 34.2549L214.229 76.1949L221.476 72.805ZM194.615 30.8523L174.815 72.7923L182.05 76.2077L201.85 34.2677L194.615 30.8523ZM405.043 80.26V76.26H401.72L401.111 79.526L405.043 80.26ZM441.223 80.26L445.196 80.7213L445.714 76.26H441.223V80.26ZM441.223 56.86V60.86H445.714L445.196 56.3987L441.223 56.86ZM405.043 56.86L401.076 57.3774L401.53 60.86H405.043V56.86ZM336.643 32.7C331.51 32.7 327.114 33.8106 323.447 35.9417C319.779 38.0737 317.061 41.0987 315.092 44.5889C311.226 51.4374 310.143 60.2434 310.143 68.56H318.143C318.143 60.6766 319.219 53.5526 322.059 48.5211C323.441 46.0713 325.213 44.1688 327.467 42.8583C329.724 41.5469 332.685 40.7 336.643 40.7V32.7ZM310.143 68.56C310.143 76.9616 311.225 85.812 315.088 92.6829C317.058 96.1852 319.775 99.2177 323.445 101.354C327.113 103.489 331.51 104.6 336.643 104.6V96.6C332.685 96.6 329.725 95.7531 327.47 94.4403C325.216 93.1286 323.445 91.2223 322.062 88.7621C319.22 83.708 318.143 76.5384 318.143 68.56H310.143ZM336.643 104.6H383.443V96.6H336.643V104.6ZM383.443 104.6C390.887 104.6 396.816 102.693 401.189 98.3209C405.432 94.0777 407.659 88.0417 408.975 80.994L401.111 79.526C399.906 85.9783 398.083 90.1123 395.532 92.6641C393.109 95.0867 389.499 96.6 383.443 96.6V104.6ZM405.043 84.26H441.223V76.26H405.043V84.26ZM437.249 79.7987C434.61 102.533 423.955 114.52 411.714 121.031C399.192 127.691 384.612 128.82 374.083 128.82V136.82C384.973 136.82 401.173 135.699 415.471 128.094C430.05 120.34 442.255 106.047 445.196 80.7213L437.249 79.7987ZM374.083 128.82H346.003V136.82H374.083V128.82ZM346.003 128.82C334.645 128.82 318.626 127.546 305.528 119.49C292.786 111.654 282.143 96.9782 282.143 68.56H274.143C274.143 99.3618 285.909 116.816 301.337 126.305C316.409 135.574 334.32 136.82 346.003 136.82V128.82ZM282.143 68.56C282.143 40.2365 292.782 25.5563 305.532 17.6948C318.633 9.61647 334.656 8.29999 346.003 8.29999V0.299995C334.31 0.299995 316.402 1.59352 301.333 10.8852C285.913 20.3937 274.143 37.8435 274.143 68.56H282.143ZM346.003 8.29999H374.083V0.299995H346.003V8.29999ZM374.083 8.29999C384.612 8.29999 399.192 9.42871 411.714 16.089C423.955 22.5999 434.61 34.5871 437.249 57.3213L445.196 56.3987C442.255 31.0729 430.05 16.7801 415.471 9.02595C401.173 1.42128 384.973 0.299995 374.083 0.299995V8.29999ZM441.223 52.86H405.043V60.86H441.223V52.86ZM409.009 56.3426C408.131 49.6102 405.871 43.6108 401.517 39.285C397.092 34.8887 390.991 32.7 383.443 32.7V40.7C389.394 40.7 393.283 42.3813 395.878 44.96C398.545 47.6092 400.334 51.6897 401.076 57.3774L409.009 56.3426ZM383.443 32.7H336.643V40.7H383.443V32.7Z" fill="white" mask="url(#path-1-outside-1_3_57)"/>
</svg>
