<svg width="458" height="131" viewBox="0 0 458 131" fill="none" xmlns="http://www.w3.org/2000/svg">
<mask id="path-1-outside-1_3_58" maskUnits="userSpaceOnUse" x="0.5" y="0" width="457" height="131" fill="black">
<rect fill="white" x="0.5" width="457" height="131"/>
<path d="M1.66211 33.7V1.29999H131.082V33.7H82.8421V129.82H48.8221V33.7H1.66211ZM234.18 1.29999C257.4 1.29999 302.04 6.51999 302.04 65.56C302.04 124.78 257.4 129.82 234.18 129.82H206.28C183.06 129.82 138.42 124.78 138.42 65.56C138.42 6.51999 183.06 1.29999 206.28 1.29999H234.18ZM243.54 97.6C261.72 97.6 266.22 81.94 266.22 65.56C266.22 49.36 261.72 33.7 243.54 33.7H196.92C178.74 33.7 174.24 49.36 174.24 65.56C174.24 81.94 178.74 97.6 196.92 97.6H243.54ZM316.486 1.29999H456.346V33.16H350.506V50.98H456.346V81.04H350.506V97.96H456.346V129.82H316.486V1.29999Z"/>
</mask>
<path d="M1.66211 33.7V1.29999H131.082V33.7H82.8421V129.82H48.8221V33.7H1.66211ZM234.18 1.29999C257.4 1.29999 302.04 6.51999 302.04 65.56C302.04 124.78 257.4 129.82 234.18 129.82H206.28C183.06 129.82 138.42 124.78 138.42 65.56C138.42 6.51999 183.06 1.29999 206.28 1.29999H234.18ZM243.54 97.6C261.72 97.6 266.22 81.94 266.22 65.56C266.22 49.36 261.72 33.7 243.54 33.7H196.92C178.74 33.7 174.24 49.36 174.24 65.56C174.24 81.94 178.74 97.6 196.92 97.6H243.54ZM316.486 1.29999H456.346V33.16H350.506V50.98H456.346V81.04H350.506V97.96H456.346V129.82H316.486V1.29999Z" fill="white"/>
<path d="M1.66211 33.7H0.662109V34.7H1.66211V33.7ZM1.66211 1.3V0.299995H0.662109V1.3H1.66211ZM131.082 1.3H132.082V0.299995H131.082V1.3ZM131.082 33.7V34.7H132.082V33.7H131.082ZM82.8421 33.7V32.7H81.8421V33.7H82.8421ZM82.8421 129.82V130.82H83.8421V129.82H82.8421ZM48.8221 129.82H47.8221V130.82H48.8221V129.82ZM48.8221 33.7H49.8221V32.7H48.8221V33.7ZM2.66211 33.7V1.3H0.662109V33.7H2.66211ZM1.66211 2.3H131.082V0.299995H1.66211V2.3ZM130.082 1.3V33.7H132.082V1.3H130.082ZM131.082 32.7H82.8421V34.7H131.082V32.7ZM81.8421 33.7V129.82H83.8421V33.7H81.8421ZM82.8421 128.82H48.8221V130.82H82.8421V128.82ZM49.8221 129.82V33.7H47.8221V129.82H49.8221ZM48.8221 32.7H1.66211V34.7H48.8221V32.7ZM234.18 2.3C245.747 2.3 262.476 3.60809 276.292 12.1408C290.02 20.6192 301.04 36.3374 301.04 65.56H303.04C303.04 35.7426 291.74 19.3308 277.343 10.4392C263.034 1.60189 245.832 0.299995 234.18 0.299995V2.3ZM301.04 65.56C301.04 94.8738 290.019 110.591 276.293 119.046C262.478 127.556 245.75 128.82 234.18 128.82V130.82C245.83 130.82 263.032 129.564 277.342 120.749C291.741 111.879 303.04 95.4662 303.04 65.56H301.04ZM234.18 128.82H206.28V130.82H234.18V128.82ZM206.28 128.82C194.71 128.82 177.982 127.556 164.167 119.046C150.441 110.591 139.42 94.8738 139.42 65.56H137.42C137.42 95.4662 148.719 111.879 163.118 120.749C177.428 129.564 194.63 130.82 206.28 130.82V128.82ZM139.42 65.56C139.42 36.3374 150.44 20.6192 164.168 12.1408C177.984 3.60809 194.712 2.3 206.28 2.3V0.299995C194.627 0.299995 177.426 1.60189 163.117 10.4392C148.72 19.3308 137.42 35.7426 137.42 65.56H139.42ZM206.28 2.3H234.18V0.299995H206.28V2.3ZM243.54 98.6C252.987 98.6 258.99 94.4945 262.566 88.2176C266.093 82.0281 267.22 73.8075 267.22 65.56H265.22C265.22 73.6925 264.097 81.4919 260.829 87.2274C257.61 92.8755 252.273 96.6 243.54 96.6V98.6ZM267.22 65.56C267.22 57.4012 266.093 49.2255 262.565 43.0585C258.989 36.805 252.986 32.7 243.54 32.7V34.7C252.274 34.7 257.611 38.425 260.829 44.0515C264.097 49.7645 265.22 57.5188 265.22 65.56H267.22ZM243.54 32.7H196.92V34.7H243.54V32.7ZM196.92 32.7C187.474 32.7 181.471 36.805 177.894 43.0585C174.367 49.2255 173.24 57.4012 173.24 65.56H175.24C175.24 57.5188 176.363 49.7645 179.63 44.0515C182.849 38.425 188.186 34.7 196.92 34.7V32.7ZM173.24 65.56C173.24 73.8075 174.367 82.0281 177.894 88.2176C181.47 94.4945 187.473 98.6 196.92 98.6V96.6C188.187 96.6 182.85 92.8755 179.631 87.2274C176.363 81.4919 175.24 73.6925 175.24 65.56H173.24ZM196.92 98.6H243.54V96.6H196.92V98.6ZM316.486 1.3V0.299995H315.486V1.3H316.486ZM456.346 1.3H457.346V0.299995H456.346V1.3ZM456.346 33.16V34.16H457.346V33.16H456.346ZM350.506 33.16V32.16H349.506V33.16H350.506ZM350.506 50.98H349.506V51.98H350.506V50.98ZM456.346 50.98H457.346V49.98H456.346V50.98ZM456.346 81.04V82.04H457.346V81.04H456.346ZM350.506 81.04V80.04H349.506V81.04H350.506ZM350.506 97.96H349.506V98.96H350.506V97.96ZM456.346 97.96H457.346V96.96H456.346V97.96ZM456.346 129.82V130.82H457.346V129.82H456.346ZM316.486 129.82H315.486V130.82H316.486V129.82ZM316.486 2.3H456.346V0.299995H316.486V2.3ZM455.346 1.3V33.16H457.346V1.3H455.346ZM456.346 32.16H350.506V34.16H456.346V32.16ZM349.506 33.16V50.98H351.506V33.16H349.506ZM350.506 51.98H456.346V49.98H350.506V51.98ZM455.346 50.98V81.04H457.346V50.98H455.346ZM456.346 80.04H350.506V82.04H456.346V80.04ZM349.506 81.04V97.96H351.506V81.04H349.506ZM350.506 98.96H456.346V96.96H350.506V98.96ZM455.346 97.96V129.82H457.346V97.96H455.346ZM456.346 128.82H316.486V130.82H456.346V128.82ZM317.486 129.82V1.3H315.486V129.82H317.486Z" fill="white" mask="url(#path-1-outside-1_3_58)"/>
</svg>
